<?xml version="1.0" encoding="utf-8"?>
<!-- Generator: Adobe Illustrator 24.1.0, SVG Export Plug-In . SVG Version: 6.00 Build 0)  -->
<svg version="1.1" id="Capa_1" xmlns="http://www.w3.org/2000/svg" xmlns:xlink="http://www.w3.org/1999/xlink" x="0px" y="0px"
	 viewBox="0 0 174.98 100" style="enable-background:new 0 0 174.98 100;" xml:space="preserve">
<style type="text/css">
	.st0{fill:#E8F5FD;}
</style>
<g>
	<path class="st0" d="M50.76,89.57c-1.15,0.43-1.15,1.87-2.31,2.16c-1.87-0.14-3.75-0.43-5.62-1.01c-0.14,0-0.14-0.43-0.58-0.58
		c-0.72,0-1.01,0.14-1.73-0.29c-0.29-0.14-0.86-0.29-1.58-0.58c-0.72-0.43-1.73-0.58-2.16-0.86c-0.14-0.14,0.14-0.29-0.29-0.29
		c-0.72-0.14-1.01-0.86-1.58-1.3c-0.43-0.14-0.86,0-1.15-0.29c-0.29-0.14-0.43-0.58-0.86-0.87c-0.29-0.29-0.58-0.43-1.01-0.58
		c-0.58-0.29-1.15-0.58-1.73-1.3c-0.58,0-0.72-0.43-0.86-0.72c-0.72-0.29-1.58-0.72-2.3-1.01c-0.58-0.43-1.01-1.15-1.44-1.58
		c-0.72-0.43-1.01-0.87-1.58-1.59c-0.29-0.29-1.58,0-1.44-1.44c-0.43-0.29-1.44-0.29-1.87-0.72c0.43-1.01-0.86-0.86-1.15-1.15
		c-0.14,0,0-0.58,0-0.72c-0.72-0.72-1.73-1.44-2.74-2.59c-0.43-0.43-0.72-0.86-1.01-1.15c-0.14-0.14,0.14-0.72,0-0.72
		c-0.43-0.29-0.58,0-0.72-0.29c0,0.14,0.29-0.43,0.29-0.58c-0.58-0.43-1.01-0.72-1.87-1.58c-0.72,1.58-0.43,3.46-0.72,5.04
		c-0.29,1.3-1.01,2.45-1.15,3.75c0,0.29,0.29,2.31,0,2.59c-0.43,0.43,0,0.29,0,0.43c-0.14,0.86-0.29,0.86-0.29,1.59
		c-0.29,0.72,0,0.72-0.43,1.01c-0.29,0.43,0.29,1.44,0.43,2.3c0,0.72-0.43,1.73-0.43,2.16c0.14,1.73,1.01,3.31,1.01,5.48
		c-0.58,0-0.14,1.01-1.01,1.01c-0.58,0-1.01,0.58-2.02,0.72c-0.29,0.14-0.58,0-1.01,0c-0.43,0.14-2.02,0.58-3.03,0.43
		c-0.86-0.14-1.01-0.43-1.44-1.15c-0.43-0.43-1.15-0.72-1.58-1.01c0.29-1.3-0.72-1.3-0.29-2.74c-1.15,0.29-0.43-1.15-0.86-1.44
		c-0.43-0.43-0.29-1.3-0.29-2.74c-0.29-2.59-0.58-7.35,0-10.52c0-0.43-0.14-0.72,0-1.15c0-0.14,0.29-0.29,0.29-0.72
		c0.29-2.16,0.29-3.89,0.86-5.91c0-0.58,0.14-0.87,0.29-2.16v-0.58c0.58-0.43,0.43-3.46,0.72-4.9c0,0.14,0.43-0.14,0.43-0.29
		c0.14-1.01,0.43-2.16,0.72-3.03c0.14-0.14-0.14-0.72,0-0.86c0.58-0.58,1.44-3.17,1.15-4.61c0.72-0.72,1.3-1.73,1.58-2.45
		c0.29-1.15,0.29-2.45,0.58-3.31c0.14-0.29,0.43,0,0.43-0.58c0-0.14,0.29-0.72,0.43-1.01c0.14-0.58,0.43-1.44,0.72-2.31
		c0-0.14-0.14-0.58,0-0.72c0.72-0.43,0-0.72,0.29-1.87c0-0.14,0.43,0,0.43-0.43c0.14-0.58,0.86-1.73,1.15-2.59
		c0.72-1.58,1.15-3.31,2.02-4.9l0.29-1.44c0.58-0.57,0.86-1.87,1.58-3.02c0-0.29,0.29,0,0.29-0.43c0-0.86,0.43-1.01,0.72-2.02
		c0,0-0.14-0.58,0-0.58c0.43-0.29,1.15-2.45,1.44-3.02c1.01-2.02,2.3-3.6,3.31-5.19c2.16-0.14,4.18-0.14,5.48,0.58
		c0.58,1.44,0.14,2.74,0,4.32c-0.14,0.29-0.29,1.3-0.43,1.73c-0.43,1.01-0.86,1.87-1.15,3.31c-0.14,1.3-0.29,2.45-0.72,3.75
		c0,0.29,0,0.72,0,0.86h-0.43c0,0.14,0.14,0.58,0,0.72c-0.58,0.43-0.72,2.45-1.15,3.89c-0.43,1.73-0.86,3.03-1.58,5.19
		c0,0.14-0.29,0.29-0.29,0.72c0,0.29,0.58,0.43,0.29,0.72c0,0.14-0.29,0.14-0.29,0.43c0,0-0.29,0.86-0.29,1.15
		c-0.29,0.58-0.14,1.3-0.72,1.44c0,1.01,0,1.87,0,2.74c-0.58,0.29-0.72,0.86-0.86,1.58c-0.14,0.29-0.43,0.72-0.29,1.44
		c0.14,0.43,0.29,0,0.72,0c1.15,0,1.58-1.3,2.59-2.02c0.29-0.14,0.58-0.14,0.72-0.29c0.29-0.14,0.58-0.58,0.86-0.72
		c0,0,0.58,0.14,0.72,0c0.43-0.58,1.44-1.44,2.31-2.31c0.14-0.29-0.14-0.43,0.29-0.43c0.58,0,0.86-1.15,1.44-1.15
		c0.72,0,0.72-1.01,1.58-1.01c0.29,0,1.3-0.86,1.58-1.58c0.72,0,1.44-0.58,2.16-0.72c1.15-0.43,1.44-1.73,2.3-2.16
		c0.14-0.14,0.58,0,0.72,0c0.14-0.29-0.14-0.86,0.29-0.86c0.72-0.14,0.72-0.72,1.3-1.3c0,0,0.72,0.29,0.72,0
		c0.29-0.29,0.29-0.29,0.72-0.58c0.29-0.29,0.86-1.01,1.15-1.15c0.14-0.14,0.58,0.14,0.72,0c0,0,0-0.29,0-0.43c0,0,0.72,0.14,0.86,0
		v-0.29c0.29-0.14,0.86-0.14,1.44-0.43c0.14,0,0.14-0.72,0.29-0.72c0.29,0,0.58,0.14,0.72,0c0.43-0.29,0.14-0.72,0.58-1.15
		c0.29-0.43,0.86-1.01,1.44-1.58c0.29-0.29,0.86-0.43,1.58-0.72c0.29-0.29,0.58-0.58,1.01-1.01c0.29-0.29,1.01-0.43,1.44-0.72
		c0.29-0.29,0.43-1.01,0.86-1.3c1.58-1.15,3.17-2.31,4.61-3.6c0.86-1.15,1.87-2.31,2.74-3.46c0.14-0.14,0.58,0.14,0.58-0.43
		c0-0.14,0.29-0.58,0.29-0.72c0.43-0.43,0.72-0.58,1.15-1.15c0.14-0.14,0.29-0.43,0.29-0.58c0.14-0.29,0.29-1.15,0.43-1.3
		c0,0,0.29,0.14,0.29,0c0.14,0,0-0.58,0-0.72c0.14,0,1.15-0.58,1.3-1.01c-0.43-1.01-1.73-1.3-2.74-1.58
		c-0.72-0.29-2.02-0.43-2.59-0.86c-0.14,0,0-0.29-0.43-0.29c-1.58-0.29-3.46-0.14-5.62-0.29c-2.59-0.43-7.2-0.43-10.52,0
		c-2.16,0.14-4.75,0.58-6.77,1.01c-0.43,0.14-1.3,0-2.16,0c-1.44,0.29-2.59,0.72-3.89,1.15c-1.01,0.29-2.45,0.58-3.46,1.15
		c-1.3-0.29-2.74-0.29-4.18,0.29c0,0,0,0.43-0.29,0.43c-0.14,0.14-0.43,0-0.58,0c-1.15,0.43-1.73,1.3-2.88,1.58
		c-0.43,0-1.15,1.01,0,0.72c-0.29,0.86-1.3-0.29-2.02,0.29c-0.72,0.72-1.3,1.01-2.45,1.15c0.14-1.73,2.59-1.58,3.17-3.03
		c-1.73-0.29-1.87,0.86-3.17,0.86c0.86-0.29-0.14-1.01,0-1.15c0.86-0.72,2.16-1.73,3.46-2.74c0-0.14,0.72,0.14,0.72,0
		c0.29-0.43,0.72-0.86,1.58-1.15c0.14,0,0.43,0.29,0.72,0c0.14-0.14-0.14-0.58,0.43-0.58c0.14-0.14,0.58,0,0.72,0
		c0.14-0.14,0.29-0.72,0.29-0.72c0.29-0.29,0.72,0,0.86,0c0.29-0.43,0.72-1.01,1.01-1.3c0.29,0,0.58,0,0.86-0.29
		c0.29-0.43,0.72-0.58,1.15-0.86c0.29-0.14,2.59-1.3,3.31-1.44c0,0,0.14-0.58,0.29-0.29c0.43,0.29,1.01,0,2.02-0.43
		c0.14-0.14,0.29-0.14,0.86-0.43c0.29-0.29,0.58-0.29,1.44-0.43c0.14,0,0.58,0.14,0.58,0c0.14,0,0-0.29,0-0.29
		c1.15-0.14,1.73-0.14,3.03-0.29c0.14,0,0.72,0,0.72,0c0.86-1.01,4.03-0.86,6.05-1.15c0,0,0.14-0.29,0.29-0.43
		c3.03-0.14,6.92-0.58,10.66-0.29c0,0,0.14,0.29,0.29,0.29c0.29,0.14,0.72-0.58,1.3-0.29c0.14,0,1.58,0.14,1.73,0.29
		c0.72,0.72,0.86-0.14,1.87,0c0.14,0,0.14,0.43,0.58,0.43c0.14,0,0.43,0.29,0.72,0.29c0.43,0,1.3-0.14,1.73,0
		c0.14,0,0.14,0.29,0.58,0.29c0.14,0,0.14,0,0.29,0c0.43,0.29,0.58,0.43,1.3,0.58c0.14,0,0.86,0.29,1.73,0.58
		c0.29,0.14,0,0.29,0.43,0.43c0.14,0,2.74,1.3,2.88,1.58c0.86,0.72,1.87,2.74,2.59,4.18c0.29,0.14,1.15,1.58,1.15,2.59
		c0.14,0.72,0.72,1.15,0.86,1.87c0.43,1.44-0.14,3.31-0.43,5.62c-0.14,0.87,0,1.15-0.43,1.73c-0.14,0.43-0.43,1.01-0.72,1.59
		c-0.72,1.44-1.01,2.74-1.73,4.18c-1.01,1.44-1.58,2.16-2.74,3.46c-0.43,0.58-1.01,1.01-1.44,1.44c-0.58,0.72-0.58,1.3-1.3,1.87
		c-0.86,1.3-3.03,2.74-4.47,4.18c-0.43,0.43-0.86,1.15-1.58,1.44c-0.43,0.43-0.86,0.72-1.44,1.15c-0.43,0.43-0.86,1.01-1.3,1.58
		c-0.72,0.43-1.15,1.01-1.58,1.3c-0.43,0.43-0.86,0.43-1.15,0.58c-0.29,0.14-0.43,0.43-0.86,0.72c-0.43,0.29-1.01,0.87-1.58,1.15
		c-0.43,0.29-0.72,1.15-1.44,1.44c-0.43,0.43-1.3,0.72-1.87,1.3c-0.43,0.29-0.86,0.87-1.44,1.44c-0.43,0.29-0.72,0.14-1.01,0.29
		c-0.43,0.14-0.72,0.58-0.86,0.72c-0.58,0.58-1.3,0.72-1.87,1.15c-0.29,0.14-0.43,0.58-0.86,0.72c-0.58,0.43-1.15,0.72-1.87,1.15
		c-0.43,0.43-1.01,0.72-1.73,1.15c-0.29,0.14,0,0.29-0.43,0.43c-1.01,0-1.15,1.01-1.87,1.44c-0.43,0.29-0.86,0.14-1.15,0.29
		c-0.58,0.29-1.01,0.86-1.87,1.15c-0.72,0.43-0.58,0.58-1.44,0.72c-0.86,0.29-0.86,1.01-1.58,1.3c-1.01,0.14-2.16,1.15-3.31,1.73
		c-1.3,0.72-2.59,1.44-3.89,2.02c0.29,0.86,1.58,1.01,0.86,1.87c0.43-0.58,1.15-0.29,1.15,0.72c1.87,1.15,3.31,2.74,4.9,4.18
		c0.72,0.72,1.58,1.44,2.16,2.16c0.58,0.72,1.87,1.15,1.87,2.31c2.16,0,3.17,2.02,4.61,3.17c0.14,0,0.29,0.14,0.72,0.29
		c0.43,0.29,1.73,1.3,2.59,1.87c0.58,0.29,0.86,0.58,1.44,1.15c0.43,0.29,0.86,0.43,1.15,0.72c0.14,0,1.73,1.01,2.31,1.01
		c0.14,0,0.58,0.29,0.72,0.43c1.73,0.86,3.31,1.58,5.33,1.87c0.29,0.29,0.14,1.15,0.86,1.15C52.2,87.98,51.48,88.85,50.76,89.57z
		 M13.01,17.24c-1.01-0.43,1.01-0.86,1.3-1.3C15.6,16.52,13.01,16.67,13.01,17.24z M16.33,12.06c1.44-0.29,1.73-1.3,3.46-1.15
		c1.73-2.02,5.47-1.87,7.2-3.75c-1.73,0.86-5.91,1.15-6.92,2.16l-0.86,0.43c-1.01,0.29-0.86,0.43-1.3,0.72
		c-0.14,0.29-0.72,0.29-1.15,0.43c-0.14,0.29-0.43,0.58-0.72,0.86c-0.29,0.14-1.01,0-1.01,0.29c-0.72-0.14-0.58,1.73,0.29,1.15
		c0,0.58,0.43,0,0-0.43C15.89,12.78,16.04,12.06,16.33,12.06z M22.52,71.41c-0.43-1.01-1.44-2.16-2.45-2.88
		c-0.72-0.86-1.73-2.16-3.31-2.31c0.72,1.73,2.16,2.74,3.89,3.31C20.79,70.69,21.94,70.84,22.52,71.41z M19.21,70.41
		c-0.72-0.58-1.44-1.58-0.86-0.86c0.58,1.01,1.3,1.73,2.3,2.31C20.94,71.13,19.64,70.84,19.21,70.41z"/>
	<path class="st0" d="M85.34,12.2c0,0.14-0.72,0-0.72,0c-0.14,0.29,0.43,0.29,0.29,0.72c0,0-0.29,0-0.29,0.43
		c-0.14,0.14,0,0.43,0,0.58c-0.14,0.58-0.58,2.45-0.72,3.89c0,0.58,0,1.44,0,2.02c-0.29,1.58-1.01,4.9-1.3,7.49
		c0.29,1.44-1.44,1.01-1.44,2.16c-0.14,1.73-0.58,3.03-1.01,5.04c-0.14,0.58-0.14,1.58-0.43,2.45c-0.14,1.01-0.72,1.59-0.86,2.31
		c0,0.72,0.14,1.3,0,2.3c0,0.29-0.29,0.58-0.43,0.43c0.14,1.01,0.86,1.87,0.86,2.59c0,0.86-0.29,0.86-0.43,1.44
		c0,0,0.43,0.29,0.43,0.43c0,0-0.43,0-0.43,0.43c0,2.16,0,3.31-0.43,5.62c0,0.86-0.58,1.58-0.58,2.31c-0.43,2.16,0,4.32-0.43,6.34
		c-0.29,1.01-0.58,2.02-0.86,3.31c-0.14,1.01,0,2.02-0.14,3.17c0,0-0.43,0-0.43,0.43c-0.14,2.02-0.86,5.04-1.3,7.49
		c0,0.43,0.29,0.72,0,1.15c0,0.29-0.14,1.01-0.29,2.45c0,0.43-0.29,0.58-0.29,1.01c-0.14,1.15,0.43,1.44,0.29,3.03
		c0,0,0.14,0.58,0,0.58c-0.43,0.43-0.72,1.73-1.87,2.88c-2.16,0.29-3.46-1.15-4.61-1.58c-0.29-0.29-0.43-0.58-0.58-0.86
		c-1.01-0.43-2.31-0.14-3.6-1.01c0.14-0.86-0.43-0.86-0.72-1.15c-0.14-0.29,0-0.72,0-0.86c-0.72-0.43-0.58-0.14-0.72-1.87
		c0,0,0.14-0.58,0-0.58c-0.29-0.58-0.43-1.15-0.43-2.45c0-0.14,0.58-0.29,0.43-0.72c0-0.29-0.43,0-0.43-0.43c0-1.3-0.43-3.31,0-4.9
		c0-0.14,0.58-1.01,0.43-1.15c-0.43-0.43,0,0,0-0.43c0,0-0.72-0.72-0.43-1.01c0.58-0.43,0.86-1.01,0.86-2.16
		c0-0.29-0.43-0.43-0.43-0.86c0-0.14,0.43-0.43,0.43-0.58c0.14-2.45,0.58-4.61,1.01-6.48c0.14-0.58,0.29-1.3,0.29-2.02
		c0.43-1.44,0.43-2.88,1.01-4.03c0,0,0.29-0.14,0.43-0.43c0.43-2.02,0.86-5.04,1.44-7.64c0,0,0.43,0,0.43-0.29
		c0.14-0.58-0.29-1.3,0-2.16c0,0,0.29,0,0.29-0.14c0-0.86,0.29-1.44,0.29-2.59c0.14-0.29,0-0.72,0-0.87
		c0.58-0.43,0.43-1.01,0.86-2.3c0.14-0.58,0.58-1.01,0.72-1.87c0.29-0.72,0.29-1.3,0.43-1.87c0.14-0.58,0.43-1.3,0.58-1.87
		c0.29-0.58,0.29-1.15,0.43-1.87c0-0.14,0.58-0.58,0.86-0.72c0.14-0.72,0-1.44,0.58-2.02c0-0.14-0.43-0.58,0-0.86
		c0.29-0.29,1.01-2.31,1.3-3.6c0.29-0.58,0.43-1.15,0.72-2.02c0.14-0.14,0.29,0,0.29-0.29v-1.15c0.43-0.14,0.43-0.14,0.43-0.72
		c0.29-0.43,0.72-0.58,0.86-1.01c0.14-0.86,0.14-1.73,0.58-2.3c0.29-0.14,0.43-1.01,0.43-1.15c0.43-0.43,0.43-1.15,0.86-2.02
		c0,0,0.58-0.14,0.58-0.43c0.43-0.58,0.14-1.58,1.3-1.87c1.87-1.58,4.75,0.43,5.62,1.87C84.9,9.89,85.91,11.77,85.34,12.2z"/>
	<path class="st0" d="M85.62,76.89c-0.58,0.58,0,2.59-0.86,3.17c-0.43,0.29-0.58,0-0.72-0.43c0-0.29,0.29-0.58,0.29-0.58
		c0-0.58-0.29-0.72-0.29-1.59c0,0.14,0.29,0,0.29-0.14c0-0.72,0-1.15,0-1.73C85.77,75.16,84.62,77.03,85.62,76.89z M85.62,85.1
		c-0.86-0.14-1.01,0.58-0.43,0.86c-0.14,0.58-0.58,0-0.86,0c-0.29-0.58,0-0.29,0-0.86c0-0.72,0-1.87,0-2.59
		C85.48,82.94,85.48,83.95,85.62,85.1z M94.99,90.43c-0.43-0.43-0.29-1.87-0.43-2.59c0-1.01-0.43-2.3,0-2.3
		c1.15-0.14,1.15,0.86,1.3,1.44c0,0.86-1.15,0.43-0.86,1.44c0.86,0.14,0.86-0.43,1.3-0.58c0.14-0.43,0.58-0.86,1.01-1.73
		c0.14,0,0.43-0.14,0.43-0.14c0.14-0.43,0.14-1.01,0.43-1.3c0-0.14,0.58,0.29,0.58,0c0.14-0.14,0.14-0.72,0.43-1.01
		c0.43-0.43,2.16-1.58,2.16-2.3c0-0.58,0.72-0.29,0.86-0.43c0.72-0.58,1.3-1.3,2.02-1.87c0.14-0.43,0.72-0.43,1.01-0.72
		c0.43-0.29,0.43-0.87,0.72-1.01c0.29-0.29,0.87,0,1.01,0c0.29-0.29,0.29-0.87,0.43-0.87c0.72-0.29,1.01-0.29,1.73-0.43
		c0,0-0.29-0.43,0.14-0.43c0.14,0,0.43,0.29,0.43,0c1.15-0.14,2.74-1.3,5.04-0.58c0.72,0.14,0.58,0.43,1.44,1.01
		c0.58,0.43,1.3,0.14,1.59,1.3c0.14,0.14,0.14,0.72,0,1.01c-0.29,0.72-0.86,1.58-1.59,2.16c-0.43,0.43-1.01,0.29-1.44,0.43
		c-0.29,0.14-0.72,0.58-0.86,0.86c-1.59,1.15-3.31,1.87-4.61,2.59c-0.43,0.14-0.58,0.72-0.58,1.58c-1.73,0-2.31,1.15-3.46,2.45
		c-0.43,0.58-1.44,1.58-1.87,2.02c0,0.14,0.14,0.72,0,0.72c-1.01,0.86-2.16,2.31-3.46,3.31c0,1.44-1.15,1.44-1.15,2.74
		c-0.58,0-1.3,0.29-1.44,0.86c-1.44-0.43-1.87-1.58-3.75-1.44c-0.43-1.01-1.3-1.73-2.31-2.16c0.29-1.87-1.01-2.31-0.86-4.03
		c1.44,0,1.73,1.15,1.87,2.16c1.3-0.43,0-1.87-0.14-2.16c-0.58-0.72-1.87-0.43-2.31-1.3c-0.14-1.01-0.14-1.73,0.29-2.16
		c0-1.44,0.58,0.14,1.15-0.86c0-0.72-0.58-1.44-1.44-1.44c0.58-0.29-0.14-1.15,0-1.73c0-1.58,0.87-2.59,1.01-4.32
		c0.43,0.29,0.43,0.87,1.3,0.87c0-1.01-0.86-1.01-1.73-1.15c0.29-0.87,0-1.73,0-2.74c0.29-1.15,0.43-3.17,0.86-4.75
		c0.29-0.86,0.29-1.01,0.43-1.73c0-0.14,0-0.72,0-1.01c0,0-0.43-0.58-0.43-0.29c0-0.43,0.58-1.3,0.86-1.59
		c0.14-1.3,0-2.45,0.14-3.75c-1.87-0.72-1.01,1.01-1.44,1.44c0,0.29-0.58-0.14-0.72,0c-0.29,0.29-0.29,0.58-0.72,0.87
		c0.29,0.43,1.01-0.43,0.72,1.44c0.14,0.72-0.43,0.58-1.01,0.58c0.14,1.58-0.72,1.73-0.43,3.17c0.43,0,0.43-0.43,0.43-0.86
		c1.01,0.29,0.29,1.73,0.29,2.74c0,1.44,0,2.59,0,3.75c-1.3-0.14-1.3,0.86-1.87,1.73c-0.72,0-0.29-0.87-0.43-1.3
		c-0.29-0.43-0.86-0.43-1.3-0.58c0.72-1.44-0.14-4.47,0.43-6.34c0.29,0,0.43,0,0.43-0.14c0-0.43,0.43-0.43,0.86-0.43
		c-0.29-0.58-1.3-0.14-1.3-0.72c0.29-1.87,0-2.31,1.87-2.88c-0.29-0.43-1.01,0.43-1.01-0.14s-0.29-0.87-0.43-0.87
		c0.86-1.58,0.43-3.89,0.86-6.05c0,0,0.29-0.14,0.58-0.43c0-0.14-0.29-1.01,0-1.01c0.58-0.58,0-1.73,0.58-2.59
		c0.43-0.43,0-1.73,0.72-2.02c-0.14-0.58-1.15-0.43-0.72-1.58c-0.29-0.86,0.58-0.43,0.72-0.58c0.29-0.29-0.14-0.86,0.43-0.86
		c-0.72-1.59,0.43-4.03,1.01-5.19c0.86,0,0.29,1.15,1.3,1.01c0.43-1.44-1.01-1.01-0.86-2.31c0.43-0.14,0-1.44,0.43-1.87
		c0,0,0.14,0,0.43,0c0.43-1.01,0.58-2.16,1.01-3.31c0.43-1.3,0.14-2.02,1.01-2.59c0.14,0,1.15-0.72,0.87-0.87
		c-0.29-0.29-0.43-0.58,0.86-0.58c-0.86-0.86,0-0.72,0.43-1.3c0.14-0.43,0.14-1.01,0.58-1.01c-0.43-0.43-0.43-1.59-0.43-2.3
		c0.72,0,0.29-1.01,0.43-1.3c0.29,0,0.86,0.29,0.86,0c0.14-0.43,0-1.01,0.43-1.87c0.14-0.29,0.43-0.72,0.58-1.44
		c0.86-1.87,1.58-4.18,2.59-5.91c0.29-0.29,0.43,0,0.43-0.43c0-1.01,0.58-1.44,1.15-2.45c0.29-0.43,0.86-0.58,0.86-1.01
		c0-0.58,0.58-0.58,0.86-0.86c0-0.14-0.29-0.58,0-0.72c0,0,0.14,0.14,0.14,0c0.14,0,0-0.58,0-0.58c0.14-0.29,0.43,0,0.43,0
		c0.14-0.29,0-0.86,0-0.86c0.43-0.29,0.58-0.43,0.72-0.86c0,0,0.29-1.01,0.43-1.01c0.29-0.14,1.01-0.43,1.01-1.15
		c0-0.58,1.3-1.44,1.3-2.02c0-0.43,0.58-0.43,0.58-0.58c0.14-0.29,0-0.58,0-0.86c0.14-0.14,1.01-0.43,1.3-0.86
		c0.87-0.72,2.16-2.16,4.18-1.3c0.72,0.29,2.16,1.3,3.03,2.59c0.14,0.86,0,1.15-0.29,1.87c-0.58,0.29-0.58,0.58-0.58,1.15
		c-0.14,0.58-0.58,0.72-0.72,1.15c-0.29,0.43-0.29,0.58-0.43,1.01c-0.29,0.58-0.43,0.58-0.58,1.73c-0.29,0.29-0.72,0.58-0.87,1.01
		c-0.58,1.44-1.01,3.31-1.87,4.61c-0.14,0.14-0.14,1.01-0.43,1.01c0,0.14-0.29,0-0.29,0c-0.29,0.72,0,1.59-0.43,2.16
		c0,0.29-0.72,0.29-0.72,0.43c-0.14,0.43,0,1.73-0.29,2.45c0,0.14-0.86,0-1.01,0c-0.14,0.14,0.14,0.72-0.14,0.72
		c0,1.73-0.72,2.74-1.3,4.18c0,0,0.29,0.57,0,0.57c-0.43,0.43-0.58,2.02-1.01,2.74c-0.43,0.43,0,1.3-0.43,2.31
		c-0.14,0.14-0.58,0.43-0.72,0.72c-0.43,0.72,0,0.86-0.43,1.87c0,0.14-0.29,0.57-0.43,1.15c0,0.43-0.14,0.58-0.14,1.3
		c-0.29,0.14-0.43,0.58-0.43,1.01c-0.29,0.29-0.29,0.58-0.43,1.15l-0.43,1.01h-0.43c-0.14,1.01-0.14,2.88-0.72,3.6
		c-0.14,0-0.14,0.87-0.43,1.01c-0.57,0.43-0.14,0.72-0.43,1.87c0,0-0.29,0-0.29,0.43c0,0,0,0.14,0,0.43
		c-0.29,0.58-0.29,2.45-0.72,3.75c-0.14,0.14-0.43,0-0.43,0.43c0,0.14-0.14,2.02-0.29,2.59c-0.29,0.29-0.72,0.29-0.86,0.72
		c-0.14,1.15,0,2.3-0.14,3.75c-0.29,0.14-0.43,0-0.43,0.43c0,0.14,0,0.43,0,0.43c-0.29,0.29-0.43,1.15-0.86,2.59
		c0-0.14,0.58,0.14,0.43,0.43c-0.43,0.14-0.58,0.14-0.86,0.58c-0.14,1.58-0.14,3.6-0.43,5.47c-0.29,0-1.01-0.29-1.01,0.43
		c0,0.14,0.43,0.14,0.86,0.14c0,0.43-0.58,0.43-0.86,0.43c0.29,0.43,0.43,0.58,0.86,0.72c0.14,0.43-0.43,0.72-0.43,0.72
		c0,0.43,0.43,0.43,0.43,0.72c0,1.15,0,2.16,0,3.31c0,0.29-0.43,0.58-0.43,1.01c0,0,0.43,0.14,0.43,0.29c0,0.72-0.58,1.44-0.86,2.31
		c-0.43,1.59,0,2.74,0,4.18c-1.15,0-0.86-0.58-1.59,0c-0.29,1.87-0.29,3.03,0.29,5.04c0.14,0.58-0.29,0.58-0.58,0.58
		C93.84,92.02,94.56,90.43,94.99,90.43z M89.37,81.36c-0.58,0.43-1.01,1.3-1.15,2.3c-1.01-0.43-0.72-1.87-0.72-3.17
		C89.08,79.91,88.22,81.5,89.37,81.36z M88.22,80.06c0.14-1.01,1.44-0.72,1.15,0.43C89.08,80.35,88.79,80.06,88.22,80.06z
		 M91.67,46.49c1.15,0.29,1.01-1.01,1.01-2.31c0.14,0,0.43-0.14,0-0.43c0,0.87-0.58,1.01-1.01,1.73
		C92.25,45.48,91.82,46.35,91.67,46.49z M92.11,60.75 M92.25,85.53c0.29,0.58-0.58,2.45,0.86,2.3
		C92.83,86.97,93.69,85.1,92.25,85.53z M92.25,79.05c0,0.43,0,1.01,0,1.44c0.86,0.29,0.86-0.43,1.3-0.87c0,0.29,0.14,0.43,0.29,0
		C93.12,79.63,93.26,78.62,92.25,79.05z"/>
	<path class="st0" d="M142.97,59.02c-0.29,0.43-0.72,0.43-0.87,0.86c-0.43,1.01-1.01,2.02-1.44,3.17c-0.58,0.29-1.01,0-1.3,1.01
		c0,0.43-0.14,0.29-0.29,0.43c-0.29,0.29,0,0.87-0.29,1.01c-0.14,0.29-0.58,0.29-0.72,0.43c-0.29,0.43,0,0.87-0.43,1.15
		c-0.43,0.29-0.43,0-0.86,0.29c-0.58,1.15-1.01,1.73-1.59,2.74c0,0.29-0.14,0-0.43,0.43c0,0.58-0.14,0.87-0.58,1.44
		c-0.14,0.14-0.43,0-0.43,0.43c0,0.58-1.01,1.01-1.44,1.44c-0.29,0.58-0.14,1.58-1.15,1.73c-0.43,1.15-0.86,2.31-2.3,2.45
		c-0.87,0.14-1.44-0.43-2.74-0.14c0-1.73-0.58-3.31-0.14-4.75c0,0,0.14,0,0.14-0.29c0.14-0.43,0.58-0.43,0.87-0.86
		c0.43-0.58,0.14-1.44,0.43-1.87c0,0,0.14,0,0.29-0.43c0-0.29,0-0.72,0.43-1.3c0-0.29,0.72-0.29,0.72-0.43
		c0.29-0.43-0.14-1.01,0-1.15c0.29-0.29,0.43,0,0.43-0.43s0.72-0.43,0.86-0.86c0,0-0.14-0.58,0-0.58h0.14c0.29-0.14,0-0.58,0-0.87
		c0.72-0.43,1.44-2.16,2.02-3.17c0-0.29,0.29,0,0.29-0.58c0.14-0.58,0.86-0.86,0.86-1.44c0-0.58,0.14-0.87,0.29-1.15
		c0.72-1.15,1.3-2.16,1.87-2.88c0.58-0.87,0.72-1.44,1.15-2.45c0.29-0.14,0.43,0,0.43-0.43c0-0.14,0-0.29,0-0.29
		c0.14-0.29,0.57-0.72,0.86-0.86c0,0-0.29-0.58,0-0.58c0.14-0.29,0.58,0,0.72-0.43c0-0.43,0.43-1.44,0.58-1.87
		c0.29-0.14,0.43,0,0.43-0.43c0-1.01,0.72-0.57,0.86-1.44c0-0.72,0.58-1.3,1.01-1.87c0.58-1.01,0.86-2.02,1.44-3.17
		c0.14-0.14,0.14-0.58,0.58-0.72c0.43-0.43,0.72-0.58,1.15-1.44c0.29-0.43,0.58-0.58,0.58-1.15c0-0.58,0.86-0.86,0.86-1.58
		c0-0.87,1.01-1.3,1.44-2.31c0.14-0.14,0.14-0.86,0.43-1.01c0.14-0.14,0.58-0.14,0.72-0.43c0.72-0.72,0.72-2.16,1.44-3.03
		c0.43-0.58,0.87-0.72,1.15-1.15c0.29-1.01,0.86-1.3,1.3-1.87c0.43-0.58,0.86-1.15,1.44-1.44c0-1.01,0.58-1.87,1.15-2.74
		c0.29-0.43,0.86-0.43,1.01-0.87c0.43-0.43,0-1.01,0.43-1.44c0.29-0.14,1.01-0.29,1.01-0.72c0.58-0.43,0.29-1.01,0.58-1.44
		c0.43-0.58,1.3-1.01,1.87-2.02c0-0.72,0.43-1.87,0.72-2.59c0.29-0.29,0.43,0.14,0.43-0.43c0-0.43,0.58-0.43,0.58-0.58
		c0.29-0.29,0-0.72,0-0.86c0.86-0.86,1.87-1.15,2.74-1.87c0.43-0.29,0.72-0.72,1.3-1.15c0.43-0.43,0.43,0,0.72-0.43
		c0.14-0.14,0-0.58,0.29-0.29c1.3,0,2.31,0,3.46,0c-0.29,0.72,1.01,0.29,1.01,1.15c0,0.58,1.3,0.72,1.15,2.02
		c0.72,0.43,1.15,1.01,1.3,1.44c0.14,0.14,0.43,0,0.43,0.43c0-0.43,1.01,2.59,0.43,3.17c-0.43,0.43-0.72,0.43-0.86,1.01v0.58
		c-0.43,0.43-1.3,2.59-1.59,3.46c-0.14,0.14-0.86,0.58-0.86,0.58c0,0.43,0.29,0.87,0,1.3c0,0.14-0.29,0-0.29,0.43
		c0,0.43-0.72,0.87-0.72,1.44c0,0.29-0.14,1.73-0.29,1.87h-0.43c0,0.29,0,0.58,0,0.86c-0.72,0.43-1.01,2.16-1.44,3.75
		c-0.29,0.29-0.43,0-0.43,0.43c0-0.43-0.43,1.87-0.43,1.87h-0.43c0,0,0.29,0.58,0,0.58c-0.29,0.43-0.72,2.31-1.01,3.03
		c0,0.29,0,0.58,0,0.86c-0.72,0.58-1.3,2.16-1.73,3.31c-3.31,10.66-5.33,20.31-7.06,30.4c-0.14,0.72,1.15,0.14,2.02,0.43
		c-0.43-0.29,2.02,0.72,2.59,0.14c0.43-0.43,0,0,0.14,0c0.29,0.14,1.15-0.43,1.73-0.14c1.01,0,1.73,0.58,3.31,0.14
		c-0.14,0.86,0.43,0.86,0.87,1.15c0.58,0.72,0.86,1.73,0.58,3.89c-0.72,0.58-1.44,1.44-3.31,1.01c-0.86,1.01-2.31,0.58-3.31,0.86
		c-1.44,0.29-2.02,0.72-3.03,1.15c-1.44,0-2.16,0.14-3.03,0.58c-0.58,1.44-0.43,3.17-0.86,5.04c0,0.29-0.29,0.43-0.29,0.43
		c-0.29,1.01,0.14,1.87,0,2.88c-0.29,1.01-0.72,1.59-0.86,2.31c-0.58,0-0.86,0.43-1.01,0.86c-1.3,0-2.45,0.14-3.17-0.43
		c0,0-1.01-0.14-1.01-0.43c-0.29-0.14-0.29-0.14-0.86-0.29l-1.01-0.29c-0.14-0.14-1.01-1.01-1.87-1.3c-0.58-1.73-1.73-2.74-1.73-4.9
		c-1.44,0-2.31,0.72-3.75,1.15c-0.14,0-0.29,0-0.58,0c-0.43,0-0.43,0.29-0.43,0.43c-0.72,0.14-1.73,0.43-2.74,0.58
		c0,0.29,0,0.43-0.43,0.43c-0.14,0-0.43,0-0.58,0c-0.43,0.29-0.58,0.58-0.87,0.86c-0.58,0.14-1.01,0.14-1.44,0.43
		c-0.14,0-0.14,0.14-0.29,0.14c-0.86,0.14-0.86,0.43-1.73,0.86c-0.14,0.14-0.58,0.14-1.01,0.29c-0.58,0.58-1.3,1.01-1.87,1.3
		c-0.72,0.29-1.44,0.58-1.87,1.15c-2.3-0.86-3.31-2.59-4.03-4.61c0.58-1.87,2.59-2.88,4.03-4.03c0.14-0.29,0.43-0.43,0.58-1.01
		c0.58-0.14,1.87-1.01,2.74-1.44c0.29,0,0.86-0.86,0.86-0.86c0.29,0,0.43,0.72,0.58,0.43c0.43,0,0.72-0.43,0.86-0.58
		c0.14-0.14,0.43-0.14,0.86-0.43c0.14-0.14,0.29-0.58,0.58-0.72c0.14,0,0.86,0.14,0.86,0c0.29-0.43,1.3-0.72,2.74-1.01
		c0-0.29,0-0.43,0.43-0.43c0.58-0.29,1.01-0.29,1.44-0.86c1.3,0,1.3-0.43,2.59,0c0.43-1.01,1.58-1.15,2.45-2.02
		c-0.14-1.44,0-3.46,0-5.04c0.14-0.58,0.58-0.86,0.58-1.15c0-0.29-0.58-0.86-0.58-1.3c0,0,0.58-0.14,0.58-0.29
		c0.14-0.72,0.14-1.01,0.72-1.3c-1.3-3.03,0.72-6.2,0.87-9.22c-0.14-0.43,0-0.43,0.14-0.43c0-0.29,0-0.29,0-0.43
		C144.26,56.43,143.69,57.87,142.97,59.02z"/>
</g>
</svg>
